<mxfile host="app.diagrams.net" modified="2020-10-12T06:52:58.875Z" agent="5.0 (Windows NT 10.0; WOW64) AppleWebKit/537.36 (KHTML, like Gecko) Chrome/78.0.3904.108 Safari/537.36" etag="zOI5EpgCNWsL_sy-5KYB" version="13.7.9" type="github">
  <diagram id="zI7dse8sADVKpllUnSGt" name="Page-1">
    <mxGraphModel dx="894" dy="554" grid="1" gridSize="10" guides="1" tooltips="1" connect="1" arrows="1" fold="1" page="1" pageScale="1" pageWidth="827" pageHeight="1169" math="0" shadow="0">
      <root>
        <mxCell id="0" />
        <mxCell id="1" parent="0" />
        <mxCell id="PXwKV8JHNkyi6VJGj49d-3" value="" style="edgeStyle=orthogonalEdgeStyle;rounded=0;orthogonalLoop=1;jettySize=auto;html=1;" edge="1" parent="1" source="PXwKV8JHNkyi6VJGj49d-1" target="PXwKV8JHNkyi6VJGj49d-2">
          <mxGeometry relative="1" as="geometry" />
        </mxCell>
        <mxCell id="PXwKV8JHNkyi6VJGj49d-1" value="" style="ellipse;whiteSpace=wrap;html=1;aspect=fixed;" vertex="1" parent="1">
          <mxGeometry x="150" y="350" width="80" height="80" as="geometry" />
        </mxCell>
        <mxCell id="PXwKV8JHNkyi6VJGj49d-2" value="" style="ellipse;whiteSpace=wrap;html=1;aspect=fixed;" vertex="1" parent="1">
          <mxGeometry x="310" y="350" width="80" height="80" as="geometry" />
        </mxCell>
      </root>
    </mxGraphModel>
  </diagram>
</mxfile>
